<svg width="608" height="671" viewBox="0 0 608 671" fill="none" xmlns="http://www.w3.org/2000/svg">
<path d="M0 125.5L43.5 467L304 670.5V569L116.5 420.5L100.5 276.5C128.5 268.1 247.833 337 304 372.5V276.5C266.8 249.3 152.833 203.833 100.5 184.5C146.1 179.3 255.167 122.333 304 94.5V0C214.8 73.6 64.1667 114.333 0 125.5Z" fill="#FF5A20"/>
<path d="M608 125.5L564.5 467L304 670.5V569L491.5 420.5L507.5 276.5C479.5 268.1 360.167 337 304 372.5V276.5C341.2 249.3 455.167 203.833 507.5 184.5C461.9 179.3 352.833 122.333 304 94.5V0C393.2 73.6 543.833 114.333 608 125.5Z" fill="#FF5A20"/>
</svg>
